# xmcd
#
# Track frame offsets:
#	150
#	12705
#	24022
#	41542
#	55080
#	68870
#	86327
#	100655
#	119225
#	132147
#	142817
#	159257
#	172285
#	188927
#
# Disc length: 2766
#
# Revision: 1
# Processed by: cddbd v1.5.1PL0 Copyright (c) Steve Scherf et al.
# Submitted via: VisiTrax 2.9.5.180 - For more info visit www.synapsa.com
# Normalized: r0:DSETVAR1
#
DISCID=b70acc0e
DTITLE=Various Artist - Mr Music Country 1-03
DYEAR=2003
DGENRE=Country
TTITLE0=Chris LeDoux - I Don't Want To Mention Any Names
TTITLE1=Jameson Clark - Waitin' On The Whiskey
TTITLE2=Mindy McCready - Lovin' Your Man
TTITLE3=Waylon Jennings - Drinkin' And Dreamin'
TTITLE4=Chris Cagle - Rock The Boat
TTITLE5=Trace Adkins - A Bad Way Of Saying Goodbye
TTITLE6=Karen Tobin - There's No Place
TTITLE7=Jason Ringenberg - I Washed My Hands In Muddy Water
TTITLE8=John Anderson - It Ain't Pneumonia, It's The Blues
TTITLE9=Lacy J. Dalton with Eddie Rabbitt - Bye Bye Love
TTITLE10=Robert Allen - Sure Been Missing You
TTITLE11=Steve Carpenter - Oklahoma
TTITLE12=Cyndi Thompson - I'll Be Seeing You
TTITLE13=Eddie London - Rowdy Road
EXTD=
EXTT0=
EXTT1=
EXTT2=
EXTT3=
EXTT4=
EXTT5=
EXTT6=
EXTT7=
EXTT8=
EXTT9=
EXTT10=
EXTT11=
EXTT12=
EXTT13=
PLAYORDER=
